<svg width="24" height="24" fill="none" xmlns="http://www.w3.org/2000/svg"><path opacity=".1" fill-rule="evenodd" clip-rule="evenodd" d="M0 12C0 5.373 5.373 0 12 0s12 5.373 12 12-5.373 12-12 12S0 18.627 0 12Z" fill="#515151"/><path fill-rule="evenodd" clip-rule="evenodd" d="M18.4 11.991a6.406 6.406 0 0 1-.504 2.488 6.443 6.443 0 0 1-2.318 2.811c-.342.23-.708.429-1.087.59a6.433 6.433 0 0 1-4.983 0 6.465 6.465 0 0 1-1.087-.59 6.445 6.445 0 0 1-2.318-2.811 6.368 6.368 0 0 1-.374-3.775 6.354 6.354 0 0 1 .964-2.287 6.453 6.453 0 0 1 1.728-1.725 6.337 6.337 0 0 1 2.29-.962 6.45 6.45 0 0 1 3.78.372 6.422 6.422 0 0 1 3.778 4.602c.087.42.131.854.131 1.287ZM9.668 7.055a5.466 5.466 0 0 0-3.017 3.81c.144.002 2.422.03 5.046-.665a32.849 32.849 0 0 0-2.03-3.145Zm2.482 3.985c-2.814.841-5.515.78-5.612.777-.001.059-.004.115-.004.174 0 1.402.53 2.68 1.4 3.647-.001-.003 1.494-2.652 4.444-3.605a5.39 5.39 0 0 1 .215-.066c-.137-.31-.287-.62-.443-.927Zm3.46-3.145A5.443 5.443 0 0 0 12 6.534c-.444 0-.875.054-1.288.153.082.11 1.108 1.47 2.043 3.183 2.062-.772 2.84-1.955 2.854-1.975Zm-2.644 4.977-.036.012c-3.225 1.122-4.278 3.385-4.29 3.41a5.46 5.46 0 0 0 5.493.722 22.689 22.689 0 0 0-1.167-4.144Zm2.088 3.645a5.46 5.46 0 0 0 2.342-3.66 7.94 7.94 0 0 0-3.406-.238 23.593 23.593 0 0 1 1.064 3.898Zm-1.878-5.833a17.062 17.062 0 0 1 .481 1.074c1.878-.236 3.727.16 3.806.177a5.426 5.426 0 0 0-1.242-3.41c-.01.014-.887 1.279-3.045 2.159Z" fill="#515151"/></svg>